<svg width="21" height="20" viewBox="0 0 21 20" fill="none" xmlns="http://www.w3.org/2000/svg">
<path d="M17.8689 14.2874C17.5916 14.9279 17.2634 15.5175 16.8832 16.0596C16.3649 16.7986 15.9405 17.3101 15.6135 17.5941C15.1065 18.0603 14.5633 18.2991 13.9816 18.3127C13.5641 18.3127 13.0605 18.1939 12.4743 17.9528C11.8862 17.7129 11.3457 17.5941 10.8515 17.5941C10.3332 17.5941 9.77733 17.7129 9.18276 17.9528C8.58728 18.1939 8.10757 18.3195 7.74081 18.3319C7.18302 18.3557 6.62704 18.1101 6.07207 17.5941C5.71787 17.2852 5.27483 16.7556 4.74408 16.0053C4.17464 15.2041 3.70647 14.275 3.3397 13.2157C2.94691 12.0716 2.75 10.9637 2.75 9.89117C2.75 8.66253 3.01549 7.60286 3.54725 6.71485C3.96517 6.00157 4.52115 5.43891 5.217 5.02586C5.91285 4.6128 6.66472 4.40232 7.47442 4.38885C7.91746 4.38885 8.49845 4.52589 9.22044 4.79523C9.9404 5.06546 10.4027 5.20251 10.6054 5.20251C10.7569 5.20251 11.2704 5.04226 12.141 4.7228C12.9643 4.42653 13.6591 4.30386 14.2283 4.35218C15.7708 4.47666 16.9296 5.0847 17.7002 6.18014C16.3208 7.01598 15.6384 8.18667 15.6519 9.68849C15.6644 10.8583 16.0888 11.8317 16.9228 12.6046C17.3008 12.9634 17.7229 13.2406 18.1925 13.4375C18.0907 13.7329 17.9832 14.0158 17.8689 14.2874ZM14.3313 0.366954C14.3313 1.28383 13.9963 2.13991 13.3287 2.9323C12.5229 3.87429 11.5484 4.41861 10.4915 4.33272C10.478 4.22272 10.4702 4.10695 10.4702 3.9853C10.4702 3.1051 10.8534 2.16311 11.5339 1.39291C11.8736 1.00294 12.3057 0.67869 12.8296 0.420028C13.3524 0.165225 13.847 0.0243136 14.3121 0.000183105C14.3257 0.122755 14.3313 0.245335 14.3313 0.366942V0.366954Z" fill="black"/>
</svg>
