<svg width="24" height="24" viewBox="0 0 24 24" fill="none" xmlns="http://www.w3.org/2000/svg">
<path d="M3.60001 9.19999C3.60001 8.16906 4.43574 7.33333 5.46667 7.33333H6.33433C6.95846 7.33333 7.54129 7.0214 7.88749 6.5021L8.64586 5.36455C8.99206 4.84525 9.57489 4.53333 10.199 4.53333H13.801C14.4251 4.53333 15.008 4.84525 15.3542 5.36455L16.1125 6.5021C16.4587 7.0214 17.0416 7.33333 17.6657 7.33333H18.5333C19.5643 7.33333 20.4 8.16906 20.4 9.19999V17.6C20.4 18.6309 19.5643 19.4667 18.5333 19.4667H5.46667C4.43574 19.4667 3.60001 18.6309 3.60001 17.6V9.19999Z" stroke="#94A3B8" stroke-width="1.5" stroke-linecap="round" stroke-linejoin="round"/>
<path d="M14.8 12.9333C14.8 14.4797 13.5464 15.7333 12 15.7333C10.4536 15.7333 9.20001 14.4797 9.20001 12.9333C9.20001 11.3869 10.4536 10.1333 12 10.1333C13.5464 10.1333 14.8 11.3869 14.8 12.9333Z" stroke="#94A3B8" stroke-width="1.5" stroke-linecap="round" stroke-linejoin="round"/>
</svg>
