<svg width="24" height="24" viewBox="0 0 24 24" fill="none" xmlns="http://www.w3.org/2000/svg">
<path fill-rule="evenodd" clip-rule="evenodd" d="M12 20.4C16.6392 20.4 20.4 16.6392 20.4 12C20.4 7.36078 16.6392 3.59998 12 3.59998C7.36078 3.59998 3.59998 7.36078 3.59998 12C3.59998 16.6392 7.36078 20.4 12 20.4ZM15.8924 10.6424C16.3025 10.2324 16.3025 9.56756 15.8924 9.15751C15.4824 8.74746 14.8176 8.74746 14.4075 9.15751L10.95 12.6151L9.59244 11.2575C9.18239 10.8475 8.51756 10.8475 8.10751 11.2575C7.69746 11.6676 7.69746 12.3324 8.10751 12.7424L10.2075 14.8424C10.6176 15.2525 11.2824 15.2525 11.6924 14.8424L15.8924 10.6424Z" fill="#2DD4BF"/>
</svg>
